<?xml version="1.0" encoding="UTF-8"?>
<svg id="Layer_1" xmlns="http://www.w3.org/2000/svg" version="1.1" viewBox="0 0 972.77 464.17">
  <!-- Generator: Adobe Illustrator 29.3.1, SVG Export Plug-In . SVG Version: 2.1.0 Build 151)  -->
  <defs>
    <style>
      .st0, .st1, .st2 {
        font-family: SourceSans3-Bold, 'Source Sans 3';
        font-size: 18px;
        font-weight: 700;
      }

      .st0, .st3 {
        fill: #0d1725;
      }

      .st4 {
        letter-spacing: .06em;
      }

      .st5 {
        letter-spacing: 0em;
      }

      .st6 {
        stroke: #000;
      }

      .st6, .st7, .st8, .st9, .st10, .st11, .st12 {
        fill: none;
      }

      .st6, .st8, .st9, .st10, .st11, .st12 {
        stroke-miterlimit: 10;
      }

      .st7 {
        stroke-linecap: round;
        stroke-linejoin: round;
      }

      .st7, .st8 {
        stroke: #4d4d4d;
      }

      .st1, .st13 {
        fill: #ef5596;
      }

      .st14 {
        letter-spacing: .19em;
      }

      .st15 {
        letter-spacing: .01em;
      }

      .st16 {
        letter-spacing: 2.28em;
      }

      .st2, .st17 {
        fill: #2c9d94;
      }

      .st18 {
        letter-spacing: 0em;
      }

      .st19 {
        letter-spacing: .61em;
      }

      .st20 {
        letter-spacing: 2.58em;
      }

      .st21 {
        letter-spacing: -.02em;
      }

      .st22 {
        letter-spacing: 0em;
      }

      .st9 {
        stroke: #2c9d94;
      }

      .st9, .st10, .st11 {
        stroke-width: 3px;
      }

      .st23 {
        letter-spacing: 0em;
      }

      .st24 {
        fill: #010101;
        font-family: SourceSans3-Semibold, 'Source Sans 3';
        font-weight: 600;
      }

      .st24, .st25 {
        font-size: 12px;
      }

      .st26 {
        letter-spacing: 1.04em;
      }

      .st10 {
        stroke: #ef5596;
      }

      .st27 {
        letter-spacing: 1.56em;
      }

      .st28 {
        letter-spacing: 0em;
      }

      .st29 {
        letter-spacing: 0em;
      }

      .st25 {
        fill: #231f20;
        font-family: MyriadPro-Regular, 'Myriad Pro';
      }

      .st11 {
        stroke: #0d1725;
      }

      .st30 {
        letter-spacing: 1.04em;
      }

      .st31 {
        letter-spacing: -.01em;
      }

      .st32 {
        letter-spacing: 0em;
      }

      .st12 {
        stroke: #666;
      }

      .st33 {
        letter-spacing: 0em;
      }
    </style>
  </defs>
  <line class="st12" x1="42.8" y1="434.53" x2="42.8" y2="424.11"/>
  <line class="st12" x1="98.39" y1="434.53" x2="98.39" y2="424.11"/>
  <line class="st12" x1="153.97" y1="434.53" x2="153.97" y2="424.11"/>
  <line class="st12" x1="209.56" y1="434.53" x2="209.56" y2="424.11"/>
  <line class="st12" x1="265.15" y1="434.53" x2="265.15" y2="424.11"/>
  <line class="st12" x1="320.74" y1="434.53" x2="320.74" y2="424.11"/>
  <line class="st12" x1="376.33" y1="434.53" x2="376.33" y2="424.11"/>
  <line class="st12" x1="431.91" y1="434.53" x2="431.91" y2="424.11"/>
  <line class="st12" x1="487.5" y1="434.53" x2="487.5" y2="424.11"/>
  <line class="st12" x1="543.09" y1="434.53" x2="543.09" y2="424.11"/>
  <line class="st12" x1="598.68" y1="434.53" x2="598.68" y2="424.11"/>
  <line class="st12" x1="654.27" y1="434.53" x2="654.27" y2="424.11"/>
  <line class="st12" x1="709.86" y1="434.53" x2="709.86" y2="424.11"/>
  <line class="st12" x1="765.44" y1="434.53" x2="765.44" y2="424.11"/>
  <line class="st12" x1="821.03" y1="434.53" x2="821.03" y2="424.11"/>
  <line class="st12" x1="876.62" y1="434.53" x2="876.62" y2="424.11"/>
  <line class="st12" x1="932.21" y1="434.53" x2="932.21" y2="424.11"/>
  <line class="st8" x1="28.9" y1="424.45" x2="973.9" y2="424.45"/>
  <text class="st24" transform="translate(919.9 460.29)"><tspan x="0" y="0">2022</tspan></text>
  <text class="st24" transform="translate(864.31 460.29)"><tspan x="0" y="0">2020</tspan></text>
  <text class="st24" transform="translate(808.72 460.29)"><tspan x="0" y="0">2018</tspan></text>
  <text class="st24" transform="translate(753.13 460.29)"><tspan x="0" y="0">2016</tspan></text>
  <text class="st24" transform="translate(697.54 460.29)"><tspan x="0" y="0">2014</tspan></text>
  <text class="st24" transform="translate(641.96 460.29)"><tspan x="0" y="0">2012</tspan></text>
  <text class="st24" transform="translate(586.37 460.29)"><tspan x="0" y="0">2010</tspan></text>
  <text class="st24" transform="translate(530.78 460.29)"><tspan x="0" y="0">2008</tspan></text>
  <text class="st24" transform="translate(475.19 460.29)"><tspan x="0" y="0">2006</tspan></text>
  <text class="st24" transform="translate(419.6 460.29)"><tspan x="0" y="0">2004</tspan></text>
  <text class="st24" transform="translate(364.01 460.29)"><tspan x="0" y="0">2002</tspan></text>
  <text class="st24" transform="translate(308.43 460.29)"><tspan x="0" y="0">2000</tspan></text>
  <text class="st24" transform="translate(252.84 460.29)"><tspan x="0" y="0">1998</tspan></text>
  <text class="st24" transform="translate(197.25 460.29)"><tspan x="0" y="0">1996</tspan></text>
  <text class="st24" transform="translate(141.66 460.29)"><tspan x="0" y="0">1994</tspan></text>
  <text class="st24" transform="translate(86.07 460.29)"><tspan x="0" y="0">1992</tspan></text>
  <text class="st24" transform="translate(30.49 460.29)"><tspan x="0" y="0">1990</tspan></text>
  <g>
    <line class="st8" x1="28.96" y1="424.3" x2="973.96" y2="424.3"/>
    <line class="st6" x1="28.96" y1="424.3" x2="28.96" y2="413.87"/>
  </g>
  <g>
    <line class="st7" x1="28.96" y1="424.3" x2="28.96" y2="7.3"/>
    <line class="st6" x1="28.96" y1="424.3" x2="52.59" y2="424.3"/>
  </g>
  <g>
    <g>
      <line class="st10" x1="70.65" y1="424.3" x2="42.86" y2="424.3"/>
      <line class="st10" x1="98.45" y1="424.3" x2="70.65" y2="424.3"/>
      <line class="st10" x1="126.24" y1="424.3" x2="98.45" y2="424.3"/>
      <line class="st10" x1="154.04" y1="424.3" x2="126.24" y2="424.3"/>
      <line class="st10" x1="181.83" y1="424.3" x2="154.04" y2="424.3"/>
      <line class="st10" x1="209.62" y1="424.3" x2="181.83" y2="424.3"/>
      <line class="st10" x1="237.42" y1="424.3" x2="209.62" y2="424.3"/>
      <line class="st10" x1="265.21" y1="424.3" x2="237.42" y2="424.3"/>
      <line class="st10" x1="293.01" y1="424.3" x2="265.21" y2="424.3"/>
      <line class="st10" x1="320.8" y1="424.3" x2="293.01" y2="424.3"/>
      <line class="st10" x1="348.59" y1="424.3" x2="320.8" y2="424.3"/>
      <line class="st10" x1="376.39" y1="424.3" x2="348.59" y2="424.3"/>
      <line class="st10" x1="404.18" y1="424.3" x2="376.39" y2="424.3"/>
      <line class="st10" x1="431.98" y1="424.3" x2="404.18" y2="424.3"/>
      <line class="st10" x1="459.77" y1="424.3" x2="431.98" y2="424.3"/>
      <line class="st10" x1="487.57" y1="424.3" x2="459.77" y2="424.3"/>
      <line class="st10" x1="515.36" y1="424.3" x2="487.57" y2="424.3"/>
      <line class="st10" x1="543.15" y1="424.3" x2="515.36" y2="424.3"/>
      <line class="st10" x1="570.95" y1="424.3" x2="543.15" y2="424.3"/>
      <line class="st10" x1="598.74" y1="424.02" x2="570.95" y2="424.3"/>
      <line class="st10" x1="626.54" y1="424.02" x2="598.74" y2="424.02"/>
      <line class="st10" x1="654.33" y1="420.96" x2="626.54" y2="424.02"/>
      <line class="st10" x1="682.12" y1="416.79" x2="654.33" y2="420.96"/>
      <line class="st10" x1="709.92" y1="408.45" x2="682.12" y2="416.79"/>
      <line class="st10" x1="737.71" y1="394.55" x2="709.92" y2="408.45"/>
      <line class="st10" x1="765.51" y1="350.35" x2="737.71" y2="394.55"/>
      <line class="st10" x1="793.3" y1="313.65" x2="765.51" y2="350.35"/>
      <line class="st10" x1="821.09" y1="297.81" x2="793.3" y2="313.65"/>
      <line class="st10" x1="848.89" y1="266.39" x2="821.09" y2="297.81"/>
      <line class="st10" x1="876.68" y1="239.43" x2="848.89" y2="266.39"/>
      <line class="st10" x1="904.48" y1="207.74" x2="876.68" y2="239.43"/>
      <line class="st10" x1="932.27" y1="191.06" x2="904.48" y2="207.74"/>
      <line class="st10" x1="960.07" y1="172.71" x2="932.27" y2="191.06"/>
    </g>
    <g>
      <line class="st9" x1="70.65" y1="242.21" x2="42.86" y2="201.06"/>
      <line class="st9" x1="98.45" y1="245.27" x2="70.65" y2="242.21"/>
      <line class="st9" x1="126.24" y1="278.9" x2="98.45" y2="245.27"/>
      <line class="st9" x1="154.04" y1="226.08" x2="126.24" y2="278.9"/>
      <line class="st9" x1="181.83" y1="280.02" x2="154.04" y2="226.08"/>
      <line class="st9" x1="209.62" y1="276.68" x2="181.83" y2="280.02"/>
      <line class="st9" x1="237.42" y1="288.91" x2="209.62" y2="276.68"/>
      <line class="st9" x1="265.21" y1="292.8" x2="237.42" y2="288.91"/>
      <line class="st9" x1="293.01" y1="337.01" x2="265.21" y2="292.8"/>
      <line class="st9" x1="320.8" y1="352.85" x2="293.01" y2="337.01"/>
      <line class="st9" x1="348.59" y1="362.86" x2="320.8" y2="352.85"/>
      <line class="st9" x1="376.39" y1="346.18" x2="348.59" y2="362.86"/>
      <line class="st9" x1="404.18" y1="267.51" x2="376.39" y2="346.18"/>
      <line class="st9" x1="431.98" y1="304.76" x2="404.18" y2="267.51"/>
      <line class="st9" x1="459.77" y1="308.65" x2="431.98" y2="304.76"/>
      <line class="st9" x1="487.57" y1="338.95" x2="459.77" y2="308.65"/>
      <line class="st9" x1="515.36" y1="360.64" x2="487.57" y2="338.95"/>
      <line class="st9" x1="543.15" y1="357.02" x2="515.36" y2="360.64"/>
      <line class="st9" x1="570.95" y1="302.81" x2="543.15" y2="357.02"/>
      <line class="st9" x1="598.74" y1="321.44" x2="570.95" y2="302.81"/>
      <line class="st9" x1="626.54" y1="332.84" x2="598.74" y2="321.44"/>
      <line class="st9" x1="654.33" y1="335.62" x2="626.54" y2="332.84"/>
      <line class="st9" x1="682.12" y1="271.95" x2="654.33" y2="335.62"/>
      <line class="st9" x1="709.92" y1="321.16" x2="682.12" y2="271.95"/>
      <line class="st9" x1="737.71" y1="321.72" x2="709.92" y2="321.16"/>
      <line class="st9" x1="765.51" y1="328.67" x2="737.71" y2="321.72"/>
      <line class="st9" x1="793.3" y1="341.73" x2="765.51" y2="328.67"/>
      <line class="st9" x1="821.09" y1="287.52" x2="793.3" y2="341.73"/>
      <line class="st9" x1="848.89" y1="293.08" x2="821.09" y2="287.52"/>
      <line class="st9" x1="876.68" y1="246.38" x2="848.89" y2="293.08"/>
      <line class="st9" x1="904.48" y1="300.03" x2="876.68" y2="246.38"/>
      <line class="st9" x1="932.27" y1="327.28" x2="904.48" y2="300.03"/>
      <line class="st9" x1="960.07" y1="331.45" x2="932.27" y2="327.28"/>
    </g>
    <g>
      <line class="st11" x1="70.65" y1="424.3" x2="42.86" y2="424.3"/>
      <line class="st11" x1="98.45" y1="424.3" x2="70.65" y2="424.3"/>
      <line class="st11" x1="126.24" y1="424.3" x2="98.45" y2="424.3"/>
      <line class="st11" x1="154.04" y1="424.3" x2="126.24" y2="424.3"/>
      <line class="st11" x1="181.83" y1="424.3" x2="154.04" y2="424.3"/>
      <line class="st11" x1="209.62" y1="424.3" x2="181.83" y2="424.3"/>
      <line class="st11" x1="237.42" y1="424.3" x2="209.62" y2="424.3"/>
      <line class="st11" x1="265.21" y1="424.3" x2="237.42" y2="424.3"/>
      <line class="st11" x1="293.01" y1="424.3" x2="265.21" y2="424.3"/>
      <line class="st11" x1="320.8" y1="424.3" x2="293.01" y2="424.3"/>
      <line class="st11" x1="348.59" y1="424.3" x2="320.8" y2="424.3"/>
      <line class="st11" x1="376.39" y1="424.3" x2="348.59" y2="424.3"/>
      <line class="st11" x1="404.18" y1="424.3" x2="376.39" y2="424.3"/>
      <line class="st11" x1="431.98" y1="424.3" x2="404.18" y2="424.3"/>
      <line class="st11" x1="459.77" y1="424.3" x2="431.98" y2="424.3"/>
      <line class="st11" x1="487.57" y1="424.3" x2="459.77" y2="424.3"/>
      <line class="st11" x1="515.36" y1="424.3" x2="487.57" y2="424.3"/>
      <line class="st11" x1="543.15" y1="424.3" x2="515.36" y2="424.3"/>
      <line class="st11" x1="570.95" y1="424.3" x2="543.15" y2="424.3"/>
      <line class="st11" x1="598.74" y1="424.3" x2="570.95" y2="424.3"/>
      <line class="st11" x1="626.54" y1="424.3" x2="598.74" y2="424.3"/>
      <line class="st11" x1="654.33" y1="424.3" x2="626.54" y2="424.3"/>
      <line class="st11" x1="682.12" y1="424.3" x2="654.33" y2="424.3"/>
      <line class="st11" x1="709.92" y1="424.3" x2="682.12" y2="424.3"/>
      <line class="st11" x1="737.71" y1="424.3" x2="709.92" y2="424.3"/>
      <line class="st11" x1="765.51" y1="424.3" x2="737.71" y2="424.3"/>
      <line class="st11" x1="793.3" y1="414.01" x2="765.51" y2="424.3"/>
      <line class="st11" x1="821.09" y1="413.18" x2="793.3" y2="414.01"/>
      <line class="st11" x1="848.89" y1="413.18" x2="821.09" y2="413.18"/>
      <line class="st11" x1="876.68" y1="412.07" x2="848.89" y2="413.18"/>
      <line class="st11" x1="904.48" y1="413.18" x2="876.68" y2="412.07"/>
      <line class="st11" x1="932.27" y1="412.9" x2="904.48" y2="413.18"/>
      <line class="st11" x1="960.07" y1="412.62" x2="932.27" y2="412.9"/>
    </g>
  </g>
  <rect class="st17" x="39.86" y="198.06" width="6" height="6" onmouseout="clearTooltip()" onmouseover="updateTooltip(&quot;0000 Hydroelectric %&quot;)"/>
  <rect class="st17" x="67.65" y="239.21" width="6" height="6" onmouseout="clearTooltip()" onmouseover="updateTooltip(&quot;0000 Hydroelectric %&quot;)"/>
  <rect class="st17" x="95.45" y="242.27" width="6" height="6" onmouseout="clearTooltip()" onmouseover="updateTooltip(&quot;0000 Hydroelectric %&quot;)"/>
  <rect class="st17" x="123.24" y="275.9" width="6" height="6" onmouseout="clearTooltip()" onmouseover="updateTooltip(&quot;0000 Hydroelectric %&quot;)"/>
  <rect class="st17" x="151.04" y="223.08" width="6" height="6" onmouseout="clearTooltip()" onmouseover="updateTooltip(&quot;0000 Hydroelectric %&quot;)"/>
  <rect class="st17" x="178.83" y="277.02" width="6" height="6" onmouseout="clearTooltip()" onmouseover="updateTooltip(&quot;0000 Hydroelectric %&quot;)"/>
  <rect class="st17" x="206.62" y="273.68" width="6" height="6" onmouseout="clearTooltip()" onmouseover="updateTooltip(&quot;0000 Hydroelectric %&quot;)"/>
  <rect class="st17" x="234.42" y="285.91" width="6" height="6" onmouseout="clearTooltip()" onmouseover="updateTooltip(&quot;0000 Hydroelectric %&quot;)"/>
  <rect class="st17" x="262.21" y="289.8" width="6" height="6" onmouseout="clearTooltip()" onmouseover="updateTooltip(&quot;0000 Hydroelectric %&quot;)"/>
  <rect class="st17" x="290.01" y="334.01" width="6" height="6" onmouseout="clearTooltip()" onmouseover="updateTooltip(&quot;0000 Hydroelectric %&quot;)"/>
  <rect class="st17" x="317.8" y="349.85" width="6" height="6" onmouseout="clearTooltip()" onmouseover="updateTooltip(&quot;0000 Hydroelectric %&quot;)"/>
  <rect class="st17" x="345.59" y="359.86" width="6" height="6" onmouseout="clearTooltip()" onmouseover="updateTooltip(&quot;0000 Hydroelectric %&quot;)"/>
  <rect class="st17" x="373.39" y="343.18" width="6" height="6" onmouseout="clearTooltip()" onmouseover="updateTooltip(&quot;0000 Hydroelectric %&quot;)"/>
  <rect class="st17" x="401.18" y="264.51" width="6" height="6" onmouseout="clearTooltip()" onmouseover="updateTooltip(&quot;0000 Hydroelectric %&quot;)"/>
  <rect class="st17" x="428.98" y="301.76" width="6" height="6" onmouseout="clearTooltip()" onmouseover="updateTooltip(&quot;0000 Hydroelectric %&quot;)"/>
  <rect class="st17" x="456.77" y="305.65" width="6" height="6" onmouseout="clearTooltip()" onmouseover="updateTooltip(&quot;0000 Hydroelectric %&quot;)"/>
  <rect class="st17" x="484.57" y="335.95" width="6" height="6" onmouseout="clearTooltip()" onmouseover="updateTooltip(&quot;0000 Hydroelectric %&quot;)"/>
  <rect class="st17" x="512.36" y="357.64" width="6" height="6" onmouseout="clearTooltip()" onmouseover="updateTooltip(&quot;0000 Hydroelectric %&quot;)"/>
  <rect class="st17" x="540.15" y="354.02" width="6" height="6" onmouseout="clearTooltip()" onmouseover="updateTooltip(&quot;0000 Hydroelectric %&quot;)"/>
  <rect class="st17" x="567.95" y="299.81" width="6" height="6" onmouseout="clearTooltip()" onmouseover="updateTooltip(&quot;0000 Hydroelectric %&quot;)"/>
  <rect class="st17" x="595.74" y="318.44" width="6" height="6" onmouseout="clearTooltip()" onmouseover="updateTooltip(&quot;0000 Hydroelectric %&quot;)"/>
  <rect class="st17" x="623.54" y="329.84" width="6" height="6" onmouseout="clearTooltip()" onmouseover="updateTooltip(&quot;0000 Hydroelectric %&quot;)"/>
  <rect class="st17" x="651.33" y="332.62" width="6" height="6" onmouseout="clearTooltip()" onmouseover="updateTooltip(&quot;0000 Hydroelectric %&quot;)"/>
  <rect class="st17" x="679.12" y="268.95" width="6" height="6" onmouseout="clearTooltip()" onmouseover="updateTooltip(&quot;0000 Hydroelectric %&quot;)"/>
  <rect class="st17" x="706.92" y="318.16" width="6" height="6" onmouseout="clearTooltip()" onmouseover="updateTooltip(&quot;0000 Hydroelectric %&quot;)"/>
  <rect class="st17" x="734.71" y="318.72" width="6" height="6" onmouseout="clearTooltip()" onmouseover="updateTooltip(&quot;0000 Hydroelectric %&quot;)"/>
  <rect class="st17" x="762.51" y="325.67" width="6" height="6" onmouseout="clearTooltip()" onmouseover="updateTooltip(&quot;0000 Hydroelectric %&quot;)"/>
  <rect class="st17" x="790.3" y="338.73" width="6" height="6" onmouseout="clearTooltip()" onmouseover="updateTooltip(&quot;0000 Hydroelectric %&quot;)"/>
  <rect class="st17" x="818.09" y="284.52" width="6" height="6" onmouseout="clearTooltip()" onmouseover="updateTooltip(&quot;0000 Hydroelectric %&quot;)"/>
  <rect class="st17" x="845.89" y="290.08" width="6" height="6" onmouseout="clearTooltip()" onmouseover="updateTooltip(&quot;0000 Hydroelectric %&quot;)"/>
  <rect class="st17" x="873.68" y="243.38" width="6" height="6" onmouseout="clearTooltip()" onmouseover="updateTooltip(&quot;0000 Hydroelectric %&quot;)"/>
  <rect class="st17" x="901.48" y="297.03" width="6" height="6" onmouseout="clearTooltip()" onmouseover="updateTooltip(&quot;0000 Hydroelectric %&quot;)"/>
  <rect class="st17" x="929.27" y="324.28" width="6" height="6" onmouseout="clearTooltip()" onmouseover="updateTooltip(&quot;0000 Hydroelectric %&quot;)"/>
  <rect class="st17" x="957.07" y="328.45" width="6" height="6" onmouseout="clearTooltip()" onmouseover="updateTooltip(&quot;0000 Hydroelectric %&quot;)"/>
  <rect class="st3" x="39.86" y="421.3" width="6" height="6" onmouseout="clearTooltip()" onmouseover="updateTooltip(&quot;1990 Wind 0%&quot;)"/>
  <rect class="st3" x="67.65" y="421.3" width="6" height="6" onmouseout="clearTooltip()" onmouseover="updateTooltip(&quot;1991 Wind 0 %&quot;)"/>
  <rect class="st3" x="95.45" y="421.3" width="6" height="6" onmouseout="clearTooltip()" onmouseover="updateTooltip(&quot;1992 Wind 0 %&quot;)"/>
  <rect class="st3" x="123.24" y="421.3" width="6" height="6" onmouseout="clearTooltip()" onmouseover="updateTooltip(&quot;1993 Wind 0 %&quot;)"/>
  <rect class="st3" x="151.04" y="421.3" width="6" height="6" onmouseout="clearTooltip()" onmouseover="updateTooltip(&quot;1994 Wind 0 %&quot;)"/>
  <rect class="st3" x="178.83" y="421.3" width="6" height="6" onmouseout="clearTooltip()" onmouseover="updateTooltip(&quot;1995 Wind 0 %&quot;)"/>
  <rect class="st3" x="206.62" y="421.3" width="6" height="6" onmouseout="clearTooltip()" onmouseover="updateTooltip(&quot;1996 Wind 0 %&quot;)"/>
  <rect class="st3" x="234.42" y="421.3" width="6" height="6" onmouseout="clearTooltip()" onmouseover="updateTooltip(&quot;1997 Wind 0 %&quot;)"/>
  <rect class="st3" x="262.21" y="421.3" width="6" height="6" onmouseout="clearTooltip()" onmouseover="updateTooltip(&quot;1998 Wind 0 %&quot;)"/>
  <rect class="st3" x="290.01" y="421.3" width="6" height="6" onmouseout="clearTooltip()" onmouseover="updateTooltip(&quot;1999 Wind 0 %&quot;)"/>
  <rect class="st3" x="317.8" y="421.3" width="6" height="6" onmouseout="clearTooltip()" onmouseover="updateTooltip(&quot;2000 Wind 0%&quot;)"/>
  <rect class="st3" x="345.59" y="421.3" width="6" height="6" onmouseout="clearTooltip()" onmouseover="updateTooltip(&quot;2001 Wind 0%&quot;)"/>
  <rect class="st3" x="373.39" y="421.3" width="6" height="6" onmouseout="clearTooltip()" onmouseover="updateTooltip(&quot;2002 Wind 0%&quot;)"/>
  <rect class="st3" x="401.18" y="421.3" width="6" height="6" onmouseout="clearTooltip()" onmouseover="updateTooltip(&quot;2003 Wind 0%&quot;)"/>
  <rect class="st3" x="428.98" y="421.3" width="6" height="6" onmouseout="clearTooltip()" onmouseover="updateTooltip(&quot;2004 Wind 0%&quot;)"/>
  <rect class="st3" x="456.77" y="421.3" width="6" height="6" onmouseout="clearTooltip()" onmouseover="updateTooltip(&quot;2005 Wind 0%&quot;)"/>
  <rect class="st3" x="484.57" y="421.3" width="6" height="6" onmouseout="clearTooltip()" onmouseover="updateTooltip(&quot;2006 Wind 0%&quot;)"/>
  <rect class="st3" x="512.36" y="421.3" width="6" height="6" onmouseout="clearTooltip()" onmouseover="updateTooltip(&quot;2007 Wind 0%&quot;)"/>
  <rect class="st3" x="540.15" y="421.3" width="6" height="6" onmouseout="clearTooltip()" onmouseover="updateTooltip(&quot;2008 Wind 0%&quot;)"/>
  <rect class="st3" x="567.95" y="421.3" width="6" height="6" onmouseout="clearTooltip()" onmouseover="updateTooltip(&quot;2009 Wind 0%&quot;)"/>
  <rect class="st3" x="595.74" y="421.3" width="6" height="6" onmouseout="clearTooltip()" onmouseover="updateTooltip(&quot;2010 Wind 0%&quot;)"/>
  <rect class="st3" x="623.54" y="421.3" width="6" height="6" onmouseout="clearTooltip()" onmouseover="updateTooltip(&quot;2011 Wind 0%&quot;)"/>
  <rect class="st3" x="651.33" y="421.3" width="6" height="6" onmouseout="clearTooltip()" onmouseover="updateTooltip(&quot;2012 Wind 0%&quot;)"/>
  <rect class="st3" x="679.12" y="421.3" width="6" height="6" onmouseout="clearTooltip()" onmouseover="updateTooltip(&quot;2013 Wind 0%&quot;)"/>
  <rect class="st3" x="706.92" y="421.3" width="6" height="6" onmouseout="clearTooltip()" onmouseover="updateTooltip(&quot;2014 Wind 0%&quot;)"/>
  <rect class="st3" x="734.71" y="421.3" width="6" height="6" onmouseout="clearTooltip()" onmouseover="updateTooltip(&quot;2015 Wind 0%&quot;)"/>
  <rect class="st3" x="762.51" y="421.3" width="6" height="6" onmouseout="clearTooltip()" onmouseover="updateTooltip(&quot;2016 Wind 0%&quot;)"/>
  <rect class="st3" x="790.3" y="411.01" width="6" height="6" onmouseout="clearTooltip()" onmouseover="updateTooltip(&quot;2017 Wind 0.37%&quot;)"/>
  <rect class="st3" x="818.09" y="410.18" width="6" height="6" onmouseout="clearTooltip()" onmouseover="updateTooltip(&quot;2018 Wind 0.40%&quot;)"/>
  <rect class="st3" x="845.89" y="410.18" width="6" height="6" onmouseout="clearTooltip()" onmouseover="updateTooltip(&quot;2019 Wind 0.40%&quot;)"/>
  <rect class="st3" x="873.68" y="409.07" width="6" height="6" onmouseout="clearTooltip()" onmouseover="updateTooltip(&quot;2020 Wind 0.44%&quot;)"/>
  <rect class="st3" x="901.48" y="410.18" width="6" height="6" onmouseout="clearTooltip()" onmouseover="updateTooltip(&quot;2021 Wind 0.40%&quot;)"/>
  <rect class="st3" x="929.27" y="409.9" width="6" height="6" onmouseout="clearTooltip()" onmouseover="updateTooltip(&quot;2022 Wind 0.41%&quot;)"/>
  <rect class="st3" x="957.07" y="409.62" width="6" height="6" onmouseout="clearTooltip()" onmouseover="updateTooltip(&quot;0000 Wind 0.42%&quot;)"/>
  <text class="st24" transform="translate(2.99 149.45)"><tspan x="0" y="0">10%</tspan></text>
  <text class="st24" transform="translate(2.99 10.45)"><tspan x="0" y="0">15%</tspan></text>
  <text class="st24" transform="translate(6.07 288.45)"><tspan x="0" y="0">5%</tspan></text>
  <text class="st24" transform="translate(9.15 428.79)"><tspan x="0" y="0">0%</tspan></text>
  <text class="st0" transform="translate(922.86 403.69)"><tspan x="0" y="0">Wind</tspan></text>
  <text class="st2" transform="translate(40.66 192.24)"><tspan x="0" y="0">H</tspan><tspan class="st22" x="12.13" y="0">y</tspan><tspan class="st18" x="21.37" y="0">d</tspan><tspan class="st29" x="31.68" y="0">r</tspan><tspan class="st18" x="38.66" y="0">oele</tspan><tspan class="st29" x="72.45" y="0">c</tspan><tspan x="80.68" y="0">tic</tspan></text>
  <text class="st1" transform="translate(918.45 164.68)"><tspan x="0" y="0">Solar</tspan></text>
  <text class="st25" transform="translate(-490.83 -10.48)"><tspan x="0" y="0"> </tspan><tspan class="st20" x="2.54" y="0">	</tspan><tspan class="st21" x="36" y="0">W</tspan><tspan x="45.96" y="0">ind</tspan><tspan class="st19" x="62.2" y="0">	</tspan><tspan class="st28" x="72" y="0">H</tspan><tspan class="st32" x="79.93" y="0">y</tspan><tspan x="85.46" y="0">d</tspan><tspan class="st31" x="92.23" y="0">r</tspan><tspan x="96.04" y="0">oele</tspan><tspan class="st15" x="117.48" y="0">c</tspan><tspan x="123.01" y="0">t</tspan><tspan class="st33" x="126.98" y="0">r</tspan><tspan x="130.95" y="0">ic</tspan><tspan class="st14" x="139.14" y="0">	</tspan><tspan class="st23" x="144" y="0">S</tspan><tspan x="149.99" y="0">olar</tspan><tspan x="0" y="14.4">&quot;1990&quot;</tspan><tspan class="st4" x="32.71" y="14.4">	</tspan><tspan x="36" y="14.4">0</tspan><tspan class="st16" x="42.16" y="14.4">	</tspan><tspan x="72" y="14.4">8.03</tspan><tspan class="st26" x="92.95" y="14.4">	</tspan><tspan x="108" y="14.4">0</tspan><tspan x="0" y="28.8">&quot;1991&quot;</tspan><tspan class="st4" x="32.71" y="28.8">	</tspan><tspan x="36" y="28.8">0</tspan><tspan class="st16" x="42.16" y="28.8">	</tspan><tspan x="72" y="28.8">6.55</tspan><tspan class="st26" x="92.95" y="28.8">	</tspan><tspan x="108" y="28.8">0</tspan><tspan x="0" y="43.2">&quot;1992&quot;</tspan><tspan class="st4" x="32.71" y="43.2">	</tspan><tspan x="36" y="43.2">0</tspan><tspan class="st16" x="42.16" y="43.2">	</tspan><tspan x="72" y="43.2">6.44</tspan><tspan class="st26" x="92.95" y="43.2">	</tspan><tspan x="108" y="43.2">0</tspan><tspan x="0" y="57.6">&quot;1993&quot;</tspan><tspan class="st4" x="32.71" y="57.6">	</tspan><tspan x="36" y="57.6">0</tspan><tspan class="st16" x="42.16" y="57.6">	</tspan><tspan x="72" y="57.6">5.23</tspan><tspan class="st26" x="92.95" y="57.6">	</tspan><tspan x="108" y="57.6">0</tspan><tspan x="0" y="72">&quot;1994&quot;</tspan><tspan class="st4" x="32.71" y="72">	</tspan><tspan x="36" y="72">0</tspan><tspan class="st16" x="42.16" y="72">	</tspan><tspan x="72" y="72">7.13</tspan><tspan class="st26" x="92.95" y="72">	</tspan><tspan x="108" y="72">0</tspan><tspan x="0" y="86.4">&quot;1995&quot;</tspan><tspan class="st4" x="32.71" y="86.4">	</tspan><tspan x="36" y="86.4">0</tspan><tspan class="st16" x="42.16" y="86.4">	</tspan><tspan x="72" y="86.4">5.19</tspan><tspan class="st26" x="92.95" y="86.4">	</tspan><tspan x="108" y="86.4">0</tspan><tspan x="0" y="100.8">&quot;1996&quot;</tspan><tspan class="st4" x="32.71" y="100.8">	</tspan><tspan x="36" y="100.8">0</tspan><tspan class="st16" x="42.16" y="100.8">	</tspan><tspan x="72" y="100.8">5.31</tspan><tspan class="st26" x="92.95" y="100.8">	</tspan><tspan x="108" y="100.8">0</tspan><tspan x="0" y="115.2">&quot;1997&quot;</tspan><tspan class="st4" x="32.71" y="115.2">	</tspan><tspan x="36" y="115.2">0</tspan><tspan class="st16" x="42.16" y="115.2">	</tspan><tspan x="72" y="115.2">4.87</tspan><tspan class="st26" x="92.95" y="115.2">	</tspan><tspan x="108" y="115.2">0</tspan><tspan x="0" y="129.6">&quot;1998&quot;</tspan><tspan class="st4" x="32.71" y="129.6">	</tspan><tspan x="36" y="129.6">0</tspan><tspan class="st16" x="42.16" y="129.6">	</tspan><tspan x="72" y="129.6">4.73</tspan><tspan class="st26" x="92.95" y="129.6">	</tspan><tspan x="108" y="129.6">0</tspan><tspan x="0" y="144">&quot;1999&quot;</tspan><tspan class="st4" x="32.71" y="144">	</tspan><tspan x="36" y="144">0</tspan><tspan class="st16" x="42.16" y="144">	</tspan><tspan x="72" y="144">3.14</tspan><tspan class="st26" x="92.95" y="144">	</tspan><tspan x="108" y="144">0</tspan><tspan x="0" y="158.4">&quot;2000&quot;</tspan><tspan class="st4" x="32.71" y="158.4">	</tspan><tspan x="36" y="158.4">0</tspan><tspan class="st16" x="42.16" y="158.4">	</tspan><tspan x="72" y="158.4">2.57</tspan><tspan class="st26" x="92.95" y="158.4">	</tspan><tspan x="108" y="158.4">0</tspan><tspan x="0" y="172.8">&quot;2001&quot;</tspan><tspan class="st4" x="32.71" y="172.8">	</tspan><tspan x="36" y="172.8">0</tspan><tspan class="st16" x="42.16" y="172.8">	</tspan><tspan x="72" y="172.8">2.21</tspan><tspan class="st26" x="92.95" y="172.8">	</tspan><tspan x="108" y="172.8">0</tspan><tspan x="0" y="187.2">&quot;2002&quot;</tspan><tspan class="st4" x="32.71" y="187.2">	</tspan><tspan x="36" y="187.2">0</tspan><tspan class="st16" x="42.16" y="187.2">	</tspan><tspan x="72" y="187.2">2.81</tspan><tspan class="st26" x="92.95" y="187.2">	</tspan><tspan x="108" y="187.2">0</tspan><tspan x="0" y="201.6">&quot;2003&quot;</tspan><tspan class="st4" x="32.71" y="201.6">	</tspan><tspan x="36" y="201.6">0</tspan><tspan class="st16" x="42.16" y="201.6">	</tspan><tspan x="72" y="201.6">5.64</tspan><tspan class="st26" x="92.95" y="201.6">	</tspan><tspan x="108" y="201.6">0</tspan><tspan x="0" y="216">&quot;2004&quot;</tspan><tspan class="st4" x="32.71" y="216">	</tspan><tspan x="36" y="216">0</tspan><tspan class="st16" x="42.16" y="216">	</tspan><tspan x="72" y="216">4.3</tspan><tspan class="st27" x="86.8" y="216">	</tspan><tspan class="st5" x="108" y="216">0</tspan><tspan x="0" y="230.4">&quot;2005&quot;</tspan><tspan class="st4" x="32.71" y="230.4">	</tspan><tspan x="36" y="230.4">0</tspan><tspan class="st16" x="42.16" y="230.4">	</tspan><tspan x="72" y="230.4">4.16</tspan><tspan class="st26" x="92.95" y="230.4">	</tspan><tspan x="108" y="230.4">0</tspan><tspan x="0" y="244.8">&quot;2006&quot;</tspan><tspan class="st4" x="32.71" y="244.8">	</tspan><tspan x="36" y="244.8">0</tspan><tspan class="st16" x="42.16" y="244.8">	</tspan><tspan x="72" y="244.8">3.07</tspan><tspan class="st26" x="92.95" y="244.8">	</tspan><tspan x="108" y="244.8">0</tspan><tspan x="0" y="259.2">&quot;2007&quot;</tspan><tspan class="st4" x="32.71" y="259.2">	</tspan><tspan x="36" y="259.2">0</tspan><tspan class="st16" x="42.16" y="259.2">	</tspan><tspan x="72" y="259.2">2.29</tspan><tspan class="st26" x="92.95" y="259.2">	</tspan><tspan x="108" y="259.2">0</tspan><tspan x="0" y="273.6">&quot;2008&quot;</tspan><tspan class="st4" x="32.71" y="273.6">	</tspan><tspan x="36" y="273.6">0</tspan><tspan class="st16" x="42.16" y="273.6">	</tspan><tspan x="72" y="273.6">2.42</tspan><tspan class="st26" x="92.95" y="273.6">	</tspan><tspan x="108" y="273.6">0</tspan><tspan x="0" y="288">&quot;2009&quot;</tspan><tspan class="st4" x="32.71" y="288">	</tspan><tspan x="36" y="288">0</tspan><tspan class="st16" x="42.16" y="288">	</tspan><tspan x="72" y="288">4.37</tspan><tspan class="st26" x="92.95" y="288">	</tspan><tspan x="108" y="288">0</tspan><tspan x="0" y="302.4">&quot;2010&quot;</tspan><tspan class="st4" x="32.71" y="302.4">	</tspan><tspan x="36" y="302.4">0</tspan><tspan class="st16" x="42.16" y="302.4">	</tspan><tspan x="72" y="302.4">3.7</tspan><tspan class="st27" x="86.8" y="302.4">	</tspan><tspan class="st5" x="108" y="302.4">0.01</tspan><tspan x="0" y="316.8">&quot;2011&quot;</tspan><tspan class="st4" x="32.71" y="316.8">	</tspan><tspan x="36" y="316.8">0</tspan><tspan class="st16" x="42.16" y="316.8">	</tspan><tspan x="72" y="316.8">3.29</tspan><tspan class="st26" x="92.95" y="316.8">	</tspan><tspan x="108" y="316.8">0.01</tspan><tspan x="0" y="331.2">&quot;2012&quot;</tspan><tspan class="st4" x="32.71" y="331.2">	</tspan><tspan x="36" y="331.2">0</tspan><tspan class="st16" x="42.16" y="331.2">	</tspan><tspan x="72" y="331.2">3.19</tspan><tspan class="st26" x="92.95" y="331.2">	</tspan><tspan x="108" y="331.2">0.12</tspan><tspan x="0" y="345.6">&quot;2013&quot;</tspan><tspan class="st4" x="32.71" y="345.6">	</tspan><tspan x="36" y="345.6">0</tspan><tspan class="st16" x="42.16" y="345.6">	</tspan><tspan x="72" y="345.6">5.48</tspan><tspan class="st26" x="92.95" y="345.6">	</tspan><tspan x="108" y="345.6">0.27</tspan><tspan x="0" y="360">&quot;2014&quot;</tspan><tspan class="st4" x="32.71" y="360">	</tspan><tspan x="36" y="360">0</tspan><tspan class="st16" x="42.16" y="360">	</tspan><tspan x="72" y="360">3.71</tspan><tspan class="st26" x="92.95" y="360">	</tspan><tspan x="108" y="360">0.57</tspan><tspan x="0" y="374.4">&quot;2015&quot;</tspan><tspan class="st4" x="32.71" y="374.4">	</tspan><tspan x="36" y="374.4">0</tspan><tspan class="st16" x="42.16" y="374.4">	</tspan><tspan x="72" y="374.4">3.69</tspan><tspan class="st26" x="92.95" y="374.4">	</tspan><tspan x="108" y="374.4">1.07</tspan><tspan x="0" y="388.8">&quot;2016&quot;</tspan><tspan class="st4" x="32.71" y="388.8">	</tspan><tspan x="36" y="388.8">0</tspan><tspan class="st16" x="42.16" y="388.8">	</tspan><tspan x="72" y="388.8">3.44</tspan><tspan class="st26" x="92.95" y="388.8">	</tspan><tspan x="108" y="388.8">2.66</tspan><tspan x="0" y="403.2">&quot;2017&quot;</tspan><tspan class="st4" x="32.71" y="403.2">	</tspan><tspan x="36" y="403.2">0.37</tspan><tspan class="st30" x="56.95" y="403.2">	</tspan><tspan class="st5" x="72" y="403.2">2.97</tspan><tspan class="st26" x="92.95" y="403.2">	</tspan><tspan x="108" y="403.2">3.98</tspan><tspan x="0" y="417.6">&quot;2018&quot;</tspan><tspan class="st4" x="32.71" y="417.6">	</tspan><tspan x="36" y="417.6">0.4</tspan><tspan class="st27" x="50.8" y="417.6">	</tspan><tspan x="72" y="417.6">4.92</tspan><tspan class="st26" x="92.95" y="417.6">	</tspan><tspan x="108" y="417.6">4.55</tspan><tspan x="0" y="432">&quot;2019&quot;</tspan><tspan class="st4" x="32.71" y="432">	</tspan><tspan x="36" y="432">0.4</tspan><tspan class="st27" x="50.8" y="432">	</tspan><tspan x="72" y="432">4.72</tspan><tspan class="st26" x="92.95" y="432">	</tspan><tspan x="108" y="432">5.68</tspan><tspan x="0" y="446.4">&quot;2020&quot;</tspan><tspan class="st4" x="32.71" y="446.4">	</tspan><tspan x="36" y="446.4">0.44</tspan><tspan class="st30" x="56.95" y="446.4">	</tspan><tspan class="st5" x="72" y="446.4">6.4</tspan><tspan class="st27" x="86.79" y="446.4">	</tspan><tspan x="108" y="446.4">6.65</tspan><tspan x="0" y="460.8">&quot;2021&quot;</tspan><tspan class="st4" x="32.71" y="460.8">	</tspan><tspan x="36" y="460.8">0.4</tspan><tspan class="st27" x="50.8" y="460.8">	</tspan><tspan x="72" y="460.8">4.47</tspan><tspan class="st26" x="92.95" y="460.8">	</tspan><tspan x="108" y="460.8">7.79</tspan><tspan x="0" y="475.2">&quot;2022&quot;</tspan><tspan class="st4" x="32.71" y="475.2">	</tspan><tspan x="36" y="475.2">0.41</tspan><tspan class="st30" x="56.95" y="475.2">	</tspan><tspan class="st5" x="72" y="475.2">3.49</tspan><tspan class="st26" x="92.95" y="475.2">	</tspan><tspan x="108" y="475.2">8.39</tspan><tspan x="0" y="489.6">&quot;2023&quot;</tspan><tspan class="st4" x="32.71" y="489.6">	</tspan><tspan x="36" y="489.6">0.42</tspan><tspan class="st30" x="56.95" y="489.6">	</tspan><tspan class="st5" x="72" y="489.6">3.34</tspan><tspan class="st26" x="92.95" y="489.6">	</tspan><tspan x="108" y="489.6">9.05</tspan></text>
  <rect class="st13" x="39.86" y="421.3" width="6" height="6" onmouseout="clearTooltip()" onmouseover="updateTooltip(&quot;1990 Solar 0%&quot;)"/>
  <rect class="st13" x="67.65" y="421.3" width="6" height="6" onmouseout="clearTooltip()" onmouseover="updateTooltip(&quot;1991 Solar 0%&quot;)"/>
  <rect class="st13" x="95.45" y="421.3" width="6" height="6" onmouseout="clearTooltip()" onmouseover="updateTooltip(&quot;1992 Solar 0%&quot;)"/>
  <rect class="st13" x="123.24" y="421.3" width="6" height="6" onmouseout="clearTooltip()" onmouseover="updateTooltip(&quot;1993 Solar 0%&quot;)"/>
  <rect class="st13" x="151.04" y="421.3" width="6" height="6" onmouseout="clearTooltip()" onmouseover="updateTooltip(&quot;1994 Solar 0%&quot;)"/>
  <rect class="st13" x="178.83" y="421.3" width="6" height="6" onmouseout="clearTooltip()" onmouseover="updateTooltip(&quot;1995 Solar 0%&quot;)"/>
  <rect class="st13" x="206.62" y="421.3" width="6" height="6" onmouseout="clearTooltip()" onmouseover="updateTooltip(&quot;1996 Solar 0%&quot;)"/>
  <rect class="st13" x="234.42" y="421.3" width="6" height="6" onmouseout="clearTooltip()" onmouseover="updateTooltip(&quot;1997 Solar 0%&quot;)"/>
  <rect class="st13" x="262.21" y="421.3" width="6" height="6" onmouseout="clearTooltip()" onmouseover="updateTooltip(&quot;1998 Solar 0%&quot;)"/>
  <rect class="st13" x="290.01" y="421.3" width="6" height="6" onmouseout="clearTooltip()" onmouseover="updateTooltip(&quot;1999 Solar 0%&quot;)"/>
  <rect class="st13" x="317.8" y="421.3" width="6" height="6" onmouseout="clearTooltip()" onmouseover="updateTooltip(&quot;2000 Solar 0%&quot;)"/>
  <rect class="st13" x="345.59" y="421.3" width="6" height="6" onmouseout="clearTooltip()" onmouseover="updateTooltip(&quot;2001 Solar 0%&quot;)"/>
  <rect class="st13" x="373.39" y="421.3" width="6" height="6" onmouseout="clearTooltip()" onmouseover="updateTooltip(&quot;2002 Solar 0%&quot;)"/>
  <rect class="st13" x="401.18" y="421.3" width="6" height="6" onmouseout="clearTooltip()" onmouseover="updateTooltip(&quot;2003 Solar 0%&quot;)"/>
  <rect class="st13" x="428.98" y="421.3" width="6" height="6" onmouseout="clearTooltip()" onmouseover="updateTooltip(&quot;2004 Solar 0%&quot;)"/>
  <rect class="st13" x="456.77" y="421.3" width="6" height="6" onmouseout="clearTooltip()" onmouseover="updateTooltip(&quot;2005 Solar 0%&quot;)"/>
  <rect class="st13" x="484.57" y="421.3" width="6" height="6" onmouseout="clearTooltip()" onmouseover="updateTooltip(&quot;2006 Solar 0%&quot;)"/>
  <rect class="st13" x="512.36" y="421.3" width="6" height="6" onmouseout="clearTooltip()" onmouseover="updateTooltip(&quot;2007 Solar 0%&quot;)"/>
  <rect class="st13" x="540.15" y="421.3" width="6" height="6" onmouseout="clearTooltip()" onmouseover="updateTooltip(&quot;2008 Solar 0%&quot;)"/>
  <rect class="st13" x="567.95" y="421.3" width="6" height="6" onmouseout="clearTooltip()" onmouseover="updateTooltip(&quot;2009 Solar 0%&quot;)"/>
  <rect class="st13" x="595.74" y="421.02" width="6" height="6" onmouseout="clearTooltip()" onmouseover="updateTooltip(&quot;2010 Solar 0.1%&quot;)"/>
  <rect class="st13" x="623.54" y="421.02" width="6" height="6" onmouseout="clearTooltip()" onmouseover="updateTooltip(&quot;2011 Solar 0.1%&quot;)"/>
  <rect class="st13" x="651.33" y="417.96" width="6" height="6" onmouseout="clearTooltip()" onmouseover="updateTooltip(&quot;2012 Solar 0.12%&quot;)"/>
  <rect class="st13" x="679.12" y="413.79" width="6" height="6" onmouseout="clearTooltip()" onmouseover="updateTooltip(&quot;0000 Solar 0.27%&quot;)"/>
  <rect class="st13" x="706.92" y="405.45" width="6" height="6" onmouseout="clearTooltip()" onmouseover="updateTooltip(&quot;2014 Solar 0.57%&quot;)"/>
  <rect class="st13" x="734.71" y="391.55" width="6" height="6" onmouseout="clearTooltip()" onmouseover="updateTooltip(&quot;2015 Solar 1.07%&quot;)"/>
  <rect class="st13" x="762.51" y="347.35" width="6" height="6" onmouseout="clearTooltip()" onmouseover="updateTooltip(&quot;2016 Solar 2.66%&quot;)"/>
  <rect class="st13" x="790.3" y="310.65" width="6" height="6" onmouseout="clearTooltip()" onmouseover="updateTooltip(&quot;2017 Solar 3.98%&quot;)"/>
  <rect class="st13" x="818.09" y="294.81" width="6" height="6" onmouseout="clearTooltip()" onmouseover="updateTooltip(&quot;2018 Solar 4.55%&quot;)"/>
  <rect class="st13" x="845.89" y="263.39" width="6" height="6" onmouseout="clearTooltip()" onmouseover="updateTooltip(&quot;2019 Solar 5.68%&quot;)"/>
  <rect class="st13" x="873.68" y="236.43" width="6" height="6" onmouseout="clearTooltip()" onmouseover="updateTooltip(&quot;2020 Solar 6.65%&quot;)"/>
  <rect class="st13" x="901.48" y="204.74" width="6" height="6" onmouseout="clearTooltip()" onmouseover="updateTooltip(&quot;2021 Solar 7.79%&quot;)"/>
  <rect class="st13" x="929.27" y="188.06" width="6" height="6" onmouseout="clearTooltip()" onmouseover="updateTooltip(&quot;2022 Solar 8.39%&quot;)"/>
  <rect class="st13" x="957.07" y="169.71" width="6" height="6" onmouseout="clearTooltip()" onmouseover="updateTooltip(&quot;2023 Solar 9.05%&quot;)"/>
</svg>